<?xml version="1.0" encoding="utf-8"?>
<!-- Generator: Adobe Illustrator 16.0.0, SVG Export Plug-In . SVG Version: 6.00 Build 0)  -->
<!DOCTYPE svg PUBLIC "-//W3C//DTD SVG 1.1//EN" "http://www.w3.org/Graphics/SVG/1.1/DTD/svg11.dtd">
<svg version="1.1" id="Layer_1" xmlns="http://www.w3.org/2000/svg" xmlns:xlink="http://www.w3.org/1999/xlink" x="0px" y="0px"
	 width="294px" height="49px" viewBox="0 6 294 49" enable-background="new 0 6 294 49" xml:space="preserve">
<g>
	<path fill="#666666" d="M7.381,38.015c-0.214,0.739-0.514,1.038-0.785,1.365c-1.359,1.642-1.376,3.474-0.043,5.15
		c0.994,1.25,2.31,2.092,3.709,2.806c4.133,2.106,8.598,3.076,13.143,3.693c7.969,1.086,15.933,1.01,23.857-0.424
		c3.739-0.676,7.418-1.602,10.813-3.401c1.009-0.535,1.953-1.161,2.778-1.953c2.169-2.08,2.18-4.385,0.034-6.485
		c-0.22-0.214-0.451-0.417-0.701-0.647c0.364-0.138,0.617-0.047,0.878,0.097c1.348,0.732,2.617,1.575,3.644,2.733
		c1.724,1.947,1.745,4.19,0.066,6.168c-1.051,1.238-2.38,2.122-3.803,2.866c-4.042,2.115-8.396,3.293-12.872,3.919
		c-10.972,1.534-21.926,1.671-32.786-0.944c-3.287-0.793-6.48-1.852-9.383-3.639c-1.249-0.768-2.39-1.667-3.189-2.927
		c-0.943-1.487-1.007-3.008-0.078-4.518C3.739,40.132,5.381,39.085,7.381,38.015z"/>
	<path fill="#F7941E" d="M31.217,49.796c-0.082-0.425,0.14-0.64,0.277-0.876c1.757-3.037,3.519-6.068,5.286-9.099
		c0.253-0.435,0.402-1.046,1.16-0.556c0.321,0.21,0.46-0.224,0.604-0.438c0.492-0.736,0.947-1.499,1.58-2.132
		c0.654-0.655,1.354-0.782,2.219-0.368c1.642,0.785,2.869,1.929,3.499,3.667c0.284,0.789,0.766,1.43,1.45,1.921
		c1.315,0.947,2.198,0.758,2.998-0.622c0.851-1.47,1.719-2.928,2.58-4.389c0.407,0.143,0.233,0.439,0.234,0.638
		c0.014,2.98-0.015,5.96,0.026,8.938c0.01,0.712-0.251,0.976-0.9,1.156c-4.395,1.216-8.878,1.851-13.419,2.102
		c-1.947,0.107-3.9,0.119-5.849,0.151C32.371,49.899,31.778,49.828,31.217,49.796z"/>
	<path fill="#F7941E" d="M60,29.46c-8.489-5.358-16.985-10.703-25.465-16.073c-0.479-0.304-0.756-0.118-1.129,0.119
		c-2.456,1.559-4.918,3.108-7.389,4.645c-0.282,0.174-0.522,0.499-1,0.394c0.224-0.843-0.443-1.818,0.678-2.531
		c0.516-0.329,0.012-1.25-0.667-1.254c-1.881-0.01-3.763-0.008-5.644,0.002c-0.26,0-0.65-0.117-0.694,0.278
		c-0.044,0.399-0.245,1.065,0.154,1.167c0.815,0.208,0.595,0.749,0.606,1.231c0.021,0.921-0.088,1.856,0.028,2.764
		c0.196,1.519-0.233,2.576-1.721,3.18c-0.647,0.262-1.208,0.736-1.809,1.114c-2.814,1.776-5.627,3.553-8.441,5.328
		c0.024,0.092,0.047,0.183,0.069,0.273c2.081,0,4.163,0.048,6.241-0.021c0.915-0.031,1.192,0.182,1.182,1.152
		c-0.056,5.077-0.025,10.152-0.029,15.229c0,0.499-0.056,0.935,0.629,1.124c3.05,0.831,6.142,1.422,9.282,1.788
		c0.488,0.056,0.773-0.076,1.041-0.498c2.452-3.861,4.925-7.707,7.391-11.56c0.132-0.207,0.417-0.509,0.271-0.649
		c-0.601-0.573-0.049-1.046,0.063-1.545c0.163-0.727,0.437-1.432,0.533-2.162c0.409-3.071-1.092-4.812-4.18-4.958
		c-2.066-0.099-4.013,0.375-5.91,1.132c-0.531,0.213-1.043,0.531-1.881,0.422c1.234-1.102,2.689-1.467,3.88-2.262
		c-1.412-0.203-2.566,0.476-3.789,0.896c-0.226,0.078-0.531,0.38-0.722-0.041c-0.151-0.333,0.166-0.425,0.373-0.527
		c3.343-1.654,6.692-3.304,10.461-3.753c1.927-0.229,3.859-0.175,5.59,0.821c1.844,1.06,3.619,2.241,5.429,3.36
		c1.545,0.955,1.626,0.994,0.746,2.594c-0.585,1.063-0.164,1.675,0.618,2.223c1.232,0.862,2.652,1.31,4.125,1.151
		c1.642-0.18,3.001,0.152,4.19,1.697c0-1.66,0.055-3.034-0.019-4.4c-0.05-0.927,0.161-1.283,1.186-1.239
		c2.106,0.09,4.219,0.027,6.366,0.027C60.535,29.662,60.222,29.6,60,29.46z"/>
	<g>
		<rect x="20.127" y="33.108" fill="#F1F2F2" width="3.267" height="3.268"/>
		<rect x="24.958" y="33.108" fill="#F1F2F2" width="3.269" height="3.268"/>
		<rect x="20.127" y="37.938" fill="#F1F2F2" width="3.267" height="3.269"/>
		<rect x="24.958" y="37.938" fill="#F1F2F2" width="3.269" height="3.269"/>
	</g>
</g>
<g>
	<path fill="#F7941E" d="M70.814,39.448l3.136-0.164c0.043,0.998,0.214,1.673,0.514,2.021c0.48,0.568,1.369,0.853,2.667,0.853
		c1.078,0,1.857-0.192,2.339-0.578c0.48-0.387,0.721-0.854,0.721-1.399c0-0.472-0.196-0.874-0.59-1.202
		c-0.277-0.24-1.036-0.631-2.278-1.17c-1.242-0.538-2.149-0.989-2.721-1.349c-0.572-0.361-1.021-0.828-1.349-1.405
		c-0.328-0.575-0.492-1.249-0.492-2.021c0-1.348,0.488-2.466,1.464-3.354c0.977-0.889,2.39-1.334,4.24-1.334
		c1.88,0,3.334,0.441,4.366,1.322c1.031,0.882,1.597,2.055,1.699,3.519l-3.158,0.142c-0.081-0.765-0.357-1.351-0.83-1.759
		c-0.474-0.407-1.173-0.612-2.098-0.612c-0.911,0-1.562,0.16-1.95,0.481c-0.39,0.32-0.584,0.724-0.584,1.212
		c0,0.459,0.178,0.839,0.536,1.137c0.356,0.306,1.147,0.726,2.371,1.258c1.843,0.793,3.016,1.438,3.52,1.935
		c0.75,0.729,1.125,1.663,1.125,2.809c0,1.413-0.559,2.62-1.677,3.623c-1.119,0.999-2.676,1.501-4.671,1.501
		c-1.377,0-2.57-0.23-3.58-0.694c-1.009-0.462-1.721-1.105-2.137-1.927C70.978,41.466,70.785,40.52,70.814,39.448z"/>
	<path fill="#F7941E" d="M85.239,44.638l3.344-16.02h11.878l-0.558,2.678h-8.578l-0.765,3.639h8.294l-0.558,2.678h-8.294
		l-1.005,4.349h9.321l-0.568,2.677H85.239z"/>
	<path fill="#F7941E" d="M103.531,44.638h-3.3l3.355-16.02h7.114c1.223,0,2.177,0.126,2.857,0.377
		c0.681,0.252,1.231,0.713,1.65,1.383c0.419,0.67,0.628,1.482,0.628,2.438c0,1.361-0.408,2.485-1.224,3.371
		c-0.815,0.885-2.051,1.434-3.704,1.645c0.422,0.379,0.82,0.878,1.19,1.496c0.736,1.253,1.555,3.023,2.459,5.311h-3.541
		c-0.284-0.901-0.841-2.313-1.672-4.229c-0.452-1.034-0.933-1.729-1.442-2.087c-0.313-0.211-0.859-0.316-1.639-0.316h-1.344
		L103.531,44.638z M105.422,35.602h1.748c1.771,0,2.945-0.105,3.524-0.317c0.579-0.211,1.032-0.542,1.361-0.995
		c0.328-0.451,0.491-0.925,0.491-1.421c0-0.582-0.237-1.02-0.71-1.311c-0.292-0.175-0.921-0.264-1.891-0.264h-3.628L105.422,35.602z
		"/>
	<path fill="#F7941E" d="M124.338,44.638h-3.518l-2.875-16.02h3.289l2.033,12.119l6.633-12.119h3.267L124.338,44.638z"/>
	<path fill="#F7941E" d="M131.114,44.638l3.354-16.02h3.29l-3.344,16.02H131.114z"/>
	<path fill="#F7941E" d="M149.079,38.868l3.322,0.504c-0.648,1.799-1.622,3.174-2.917,4.125c-1.297,0.95-2.817,1.427-4.558,1.427
		c-1.959,0-3.491-0.591-4.595-1.771s-1.656-2.892-1.656-5.136c0-1.821,0.37-3.487,1.109-4.999s1.765-2.669,3.076-3.471
		c1.311-0.801,2.739-1.201,4.283-1.201c1.734,0,3.137,0.464,4.208,1.393c1.07,0.93,1.701,2.195,1.891,3.798l-3.159,0.306
		c-0.174-0.932-0.511-1.607-1.011-2.027s-1.164-0.628-1.995-0.628c-0.91,0-1.761,0.276-2.551,0.83
		c-0.79,0.555-1.421,1.419-1.896,2.595c-0.474,1.178-0.71,2.353-0.71,3.524c0,1.282,0.307,2.272,0.924,2.972
		c0.615,0.7,1.382,1.05,2.3,1.05c0.853,0,1.634-0.275,2.343-0.831C148.199,40.773,148.728,39.954,149.079,38.868z"/>
	<path fill="#F7941E" d="M153.635,44.638l3.344-16.02h11.879l-0.558,2.678h-8.577l-0.765,3.639h8.295l-0.559,2.678h-8.293
		l-1.006,4.349h9.321l-0.568,2.677H153.635z"/>
	<path fill="#666666" d="M187.588,44.638h-3.071l-4.327-10.763l-2.251,10.763h-3.07l3.343-16.02h3.082l4.339,10.721l2.24-10.721
		h3.059L187.588,44.638z"/>
	<path fill="#666666" d="M190.942,44.638l3.345-16.02h11.878l-0.558,2.678h-8.578l-0.765,3.639h8.294l-0.557,2.678h-8.296
		l-1.004,4.349h9.32l-0.568,2.677H190.942z"/>
	<path fill="#666666" d="M216.361,41.098h-6.349l-1.926,3.54h-3.386l9.059-16.019h3.661l2.602,16.019h-3.126L216.361,41.098z
		 M215.956,38.432l-0.929-6.447l-3.869,6.447H215.956z"/>
	<path fill="#666666" d="M225.397,44.638h-3.3l3.354-16.02h7.114c1.224,0,2.177,0.126,2.857,0.377
		c0.681,0.252,1.232,0.713,1.651,1.383c0.418,0.67,0.627,1.482,0.627,2.438c0,1.361-0.407,2.485-1.223,3.371
		c-0.816,0.885-2.051,1.434-3.705,1.645c0.423,0.379,0.82,0.878,1.19,1.496c0.735,1.253,1.556,3.023,2.46,5.311h-3.54
		c-0.285-0.901-0.842-2.313-1.673-4.229c-0.451-1.034-0.933-1.729-1.442-2.087c-0.313-0.211-0.859-0.316-1.64-0.316h-1.345
		L225.397,44.638z M227.287,35.602h1.749c1.771,0,2.945-0.105,3.524-0.317c0.579-0.211,1.033-0.542,1.361-0.995
		c0.327-0.451,0.491-0.925,0.491-1.421c0-0.582-0.237-1.02-0.711-1.311c-0.291-0.175-0.922-0.264-1.89-0.264h-3.629L227.287,35.602z
		"/>
	<path fill="#666666" d="M253.625,44.638h-3.127l-0.579-13.386l-2.545,13.386h-2.973l3.344-16.02h4.698l0.492,11.223l5.465-11.223
		h4.753l-3.354,16.02h-3.006l3.158-13.287L253.625,44.638z"/>
	<path fill="#666666" d="M263.055,44.638l3.344-16.02h11.878l-0.557,2.678h-8.578l-0.765,3.639h8.294l-0.557,2.678h-8.294
		l-1.006,4.349h9.32l-0.568,2.677H263.055z"/>
</g>
</svg>
