<?xml version="1.0" encoding="utf-8"?>
<!-- Generator: Adobe Illustrator 16.0.0, SVG Export Plug-In . SVG Version: 6.00 Build 0)  -->
<!DOCTYPE svg PUBLIC "-//W3C//DTD SVG 1.1//EN" "http://www.w3.org/Graphics/SVG/1.1/DTD/svg11.dtd">
<svg version="1.1" id="Layer_1" xmlns="http://www.w3.org/2000/svg" xmlns:xlink="http://www.w3.org/1999/xlink" x="0px" y="0px"
	 width="40px" height="40px" viewBox="0 0 40 40" enable-background="new 0 0 40 40" xml:space="preserve">
<g>
	<path fill="#F1F2F2" d="M19.611,1.833c10.018,0,18.167,8.15,18.167,18.167c0,10.018-8.149,18.167-18.167,18.167
		C9.594,38.168,1.444,30.019,1.444,20C1.444,9.983,9.594,1.833,19.611,1.833 M19.611,0.833C9.025,0.833,0.444,9.415,0.444,20
		s8.582,19.167,19.167,19.167c10.586,0,19.167-8.582,19.167-19.167S30.197,0.833,19.611,0.833L19.611,0.833z"/>
</g>
<path fill="#FBB040" d="M19.611,7.337c-5.006,0-9.064,4.059-9.064,9.064c0,5.005,9.064,16.262,9.064,16.262
	s9.063-11.257,9.063-16.262C28.675,11.396,24.617,7.337,19.611,7.337z M19.611,21c-2.834,0-5.132-2.298-5.132-5.132
	c0-2.834,2.297-5.132,5.132-5.132s5.132,2.297,5.132,5.132C24.743,18.702,22.445,21,19.611,21z"/>
</svg>
