<?xml version="1.0" encoding="utf-8"?>
<!-- Generator: Adobe Illustrator 24.0.1, SVG Export Plug-In . SVG Version: 6.00 Build 0)  -->
<svg version="1.1" id="Layer_1" xmlns="http://www.w3.org/2000/svg" xmlns:xlink="http://www.w3.org/1999/xlink" x="0px" y="0px"
	 viewBox="0 0 100 100" style="enable-background:new 0 0 100 100;" xml:space="preserve">
<style type="text/css">
	.st0{fill:url(#SVGID_1_);}
	.st1{display:none;}
	.st2{display:inline;}
	.st3{fill:#FFFFFF;}
</style>
<linearGradient id="SVGID_1_" gradientUnits="userSpaceOnUse" x1="1.2452" y1="49.7775" x2="99.2452" y2="49.7775">
	<stop  offset="0" style="stop-color:#FAC16D"/>
	<stop  offset="1" style="stop-color:#EF7D02"/>
</linearGradient>
<circle class="st0" cx="50.25" cy="49.78" r="49"/>
<g class="st1">
	<g class="st2">
		<path class="st3" d="M43.26,43.54c0.15,0,0.28,0,0.41,0c4.54,0,9.09,0,13.63,0c0.45,0,0.45,0,0.45,0.46c0,1.37-0.04,2.74,0.3,4.08
			c0.25,0.99,0.65,1.91,1.41,2.62c0.77,0.73,1.71,1.09,2.74,1.1c2.83,0.03,5.65,0.01,8.48,0.02c0.14,0,0.29,0,0.46,0
			c0,3.55,0,7.07,0,10.63c-0.12,0-0.22,0-0.33,0c-2.18-0.02-4.35-0.02-6.53-0.05c-1.81-0.02-3.57,0.21-5.16,1.12
			c-0.95,0.54-1.86,1.18-2.73,1.84c-1.97,1.51-4.18,2.15-6.64,1.93c-1.91-0.17-3.53-0.98-4.97-2.23c-0.74-0.65-1.48-1.34-2.34-1.79
			c-2.56-1.34-5.07-1.07-7.39,0.62c-1.42,1.03-2.24,2.53-2.78,4.16c-0.37,1.12-0.61,2.29-0.91,3.43c-0.03,0.1-0.05,0.2-0.08,0.31
			c-3.1,0-6.21,0-9.37,0c0.06-0.61,0.09-1.22,0.19-1.81c0.42-2.51,1.07-4.96,2.13-7.29c1.51-3.35,3.63-6.22,6.7-8.33
			c2.18-1.49,4.58-2.42,7.18-2.83c0.74-0.12,1.49-0.21,2.2-0.43c1.75-0.53,2.75-1.83,2.84-3.66c0.06-1.2,0.04-2.4,0.06-3.6
			C43.24,43.75,43.25,43.66,43.26,43.54z"/>
		<path class="st3" d="M53.41,37.94c0.55,0,1.1-0.01,1.64,0c0.46,0.01,0.81,0.32,0.9,0.76c0.07,0.36-0.13,0.78-0.48,0.95
			c-0.14,0.06-0.3,0.09-0.45,0.09c-3.06,0.01-6.12,0.01-9.18,0c-0.55,0-0.93-0.37-0.93-0.89c0-0.52,0.37-0.9,0.91-0.92
			c0.28-0.01,0.56,0.01,0.84,0.01c0.27,0,0.53,0,0.83,0c0-0.4,0-0.76,0-1.11c0-1.23,0-2.47,0.01-3.7c0-0.18-0.05-0.28-0.21-0.37
			c-0.41-0.24-0.81-0.52-1.22-0.76c-0.1-0.06-0.26-0.07-0.38-0.05c-1.86,0.31-3.69,0.7-5.47,1.31c-1.66,0.57-3.03,0-4.19-1.15
			c-1.77-1.76-1.83-4.38-0.18-6.25c0.87-0.98,1.95-1.61,3.28-1.61c0.55,0,1.11,0.21,1.66,0.37c1.64,0.49,3.3,0.89,5,1.12
			c0.11,0.02,0.27-0.03,0.35-0.1c2.37-1.88,6.29-1.87,8.62,0.01c0.09,0.07,0.24,0.1,0.36,0.08c1.98-0.26,3.9-0.77,5.8-1.37
			c0.85-0.27,1.64-0.13,2.41,0.22c1.89,0.87,3.17,2.83,2.83,5.04c-0.33,2.15-2.46,3.99-4.62,3.82c-0.63-0.05-1.24-0.36-1.87-0.5
			c-1.51-0.35-3.03-0.68-4.55-1.01c-0.1-0.02-0.24,0.02-0.34,0.08c-0.4,0.24-0.8,0.49-1.19,0.75c-0.09,0.06-0.2,0.19-0.21,0.29
			c-0.01,1.58-0.01,3.16,0,4.74C53.38,37.85,53.39,37.87,53.41,37.94z"/>
		<path class="st3" d="M79,64.72c-1.87,0-3.7,0-5.54,0c-0.14-0.35-0.28-0.7-0.43-1.04c-0.22-0.47-0.59-0.8-1.05-1.05
			c-0.1-0.05-0.19-0.21-0.19-0.32c-0.01-3.43-0.01-6.86-0.01-10.29c0-0.2,0.04-0.31,0.24-0.41c0.75-0.35,1.09-1.03,1.33-1.77
			c0.03-0.1,0.06-0.19,0.09-0.29c1.85,0,3.7,0,5.57,0C79,54.6,79,59.65,79,64.72z"/>
		<path class="st3" d="M50.45,40.34c2.29,0,4.58-0.01,6.86,0.01c0.24,0,0.49,0.11,0.73,0.18c0.07,0.02,0.12,0.1,0.16,0.16
			c0.18,0.26,0.19,1.69-0.04,1.88c-0.21,0.17-0.5,0.32-0.76,0.33c-1.03,0.04-2.06,0.02-3.1,0.02c-3.59,0-7.18,0.01-10.77-0.01
			c-0.27,0-0.56-0.13-0.8-0.27c-0.12-0.06-0.19-0.28-0.2-0.44c-0.03-0.34-0.02-0.69-0.01-1.04c0.01-0.49,0.28-0.8,0.78-0.82
			c0.46-0.02,0.92-0.01,1.38-0.01C46.62,40.34,48.53,40.34,50.45,40.34z"/>
		<path class="st3" d="M26.65,75.7c-1.5,0-3.01-0.01-4.51,0.01c-0.44,0-0.73-0.19-0.9-0.57c-0.31-0.72-0.32-1.46-0.02-2.19
			c0.17-0.42,0.47-0.61,0.94-0.61c2.98,0.01,5.97,0.01,8.95,0c0.44,0,0.72,0.18,0.9,0.56c0.35,0.76,0.34,1.52-0.01,2.27
			c-0.17,0.37-0.46,0.54-0.89,0.53C29.64,75.69,28.14,75.7,26.65,75.7z"/>
	</g>
</g>
<g>
	<path class="st3" d="M36.88,67.07c0,0,7.15-3.07,12.72-1.79c5.57,1.28,9.1,0.12,10.56,1.09c1.46,0.97-0.63,2.82-3.18,3.01
		c-2.55,0.19-8.57,0.24-9.76,2.14c-1.18,1.91,13.74,3.2,23.22,0.6c0,0,2.64-0.94,2.49,1.12c-0.15,2.06-7.31,4.85-9.22,5.2
		c0,0-3.81,3.13-7.78,3.18c-3.97,0.06-10.02,1.97-19.36-2.89c-9.34-4.86-9.84-1.95-9.84-1.95S33.32,67.67,36.88,67.07z"/>
	<path class="st3" d="M67.33,41.23c-8.39-11.47-12.86-20.54-14.01-23.02l-0.03-0.69c0,0-0.05,0.11-0.14,0.32
		c-0.09-0.21-0.14-0.32-0.14-0.32l-0.03,0.69c-1.18,2.53-5.78,11.87-14.46,23.62c-1.02,1.09-1.94,2.29-2.72,3.58
		c-0.15,0.19-0.29,0.38-0.45,0.57l0.08,0.06c-1.74,3.12-2.75,6.74-2.75,10.61c0,3.52,0.83,6.83,2.29,9.76
		c0.53-0.3,1.05-0.51,1.53-0.62c0.84-0.34,5.44-2.15,10.1-2.15c1.17,0,2.26,0.12,3.25,0.34c2.81,0.64,5.13,0.64,6.92,0.63
		c0.23,0,0.46,0,0.67,0c1.32,0,2.49,0.05,3.38,0.64c0.86,0.57,1.23,1.47,1,2.42c-0.38,1.54-2.43,2.84-4.77,3.01
		c-0.36,0.03-0.78,0.05-1.26,0.08c-1.27,0.07-4.48,0.25-6.29,0.79c1.55,0.36,4.35,0.71,8.25,0.71c3.73,0,7.3-0.33,10.29-0.93
		c3.52-3.81,5.69-8.98,5.69-14.67C73.76,50.58,71.29,45.1,67.33,41.23z M59.29,40.73c-1.64-1.89,1.06-4.7,2.7-2.8
		c4.4,5.08,7.41,10.59,8.57,17.36c0.42,2.49-3.26,3.56-3.69,1.05C65.83,50.23,63.28,45.34,59.29,40.73z M68.51,62.96
		c-2.47,0-2.47-3.96,0-3.96C70.97,59.01,70.97,62.96,68.51,62.96z"/>
</g>
</svg>
