<?xml version="1.0" encoding="utf-8"?>
<!-- Generator: Adobe Illustrator 24.0.1, SVG Export Plug-In . SVG Version: 6.00 Build 0)  -->
<svg version="1.1" id="Layer_1" xmlns="http://www.w3.org/2000/svg" xmlns:xlink="http://www.w3.org/1999/xlink" x="0px" y="0px"
	 viewBox="0 0 50 50" style="enable-background:new 0 0 50 50;" xml:space="preserve">
<style type="text/css">
	.st0{fill:#FAAF40;}
	.st1{fill-rule:evenodd;clip-rule:evenodd;}
	.st2{fill-rule:evenodd;clip-rule:evenodd;fill:#FAAF40;}
	.st3{fill-rule:evenodd;clip-rule:evenodd;fill:#666666;}
</style>
<g>
	<path class="st0" d="M41.56,50H8.44C3.79,50,0,46.21,0,41.56V8.44C0,3.79,3.79,0,8.44,0h33.12C46.21,0,50,3.79,50,8.44v33.12
		C50,46.21,46.21,50,41.56,50z M8.44,1C4.34,1,1,4.34,1,8.44v33.12C1,45.66,4.34,49,8.44,49h33.12c4.1,0,7.44-3.34,7.44-7.44V8.44
		C49,4.34,45.66,1,41.56,1H8.44z"/>
</g>
<g>
	<path class="st1" d="M28.3,10.49v1.4c0.87-1.62,3.5-0.35,5.24-0.53c0.15-0.01,0.17-0.2,0-0.23C31.82,10.82,29.59,9.17,28.3,10.49z"
		/>
	<path class="st2" d="M28.3,10.49v1.4c0.87-1.62,3.5-0.35,5.24-0.53c0.15-0.01,0.17-0.2,0-0.23C31.82,10.82,29.59,9.17,28.3,10.49z"
		/>
	<path class="st3" d="M27.88,10.42c0.64-1.46,2.12-1.33,4.09-1.12l-0.01-0.98l-6.78,0.55l-0.54,3.13l-4.49-0.78l-1.67-0.29v2.99
		l1.67-0.29l4.31-0.74c-0.98,1.25-3.7,4.64-3.7,5.27v0.41h11.15v-0.41c0-0.73-4.05-5.73-4.05-5.73L27.88,10.42z"/>
	<polygon class="st2" points="13.17,14.84 17.45,14.1 17.45,10.75 13.17,10.01 	"/>
	<rect x="20.78" y="19.94" class="st2" width="11.15" height="15.31"/>
	<path class="st3" d="M20.78,36.63v1.19c0,1.72,1.39,3.11,3.11,3.11h4.93c1.72,0,3.11-1.39,3.11-3.11v-1.19H20.78z"/>
</g>
</svg>
