<?xml version="1.0" encoding="utf-8"?>
<!-- Generator: Adobe Illustrator 24.0.1, SVG Export Plug-In . SVG Version: 6.00 Build 0)  -->
<svg version="1.1" id="Layer_1" xmlns="http://www.w3.org/2000/svg" xmlns:xlink="http://www.w3.org/1999/xlink" x="0px" y="0px"
	 viewBox="0 0 50 50" style="enable-background:new 0 0 50 50;" xml:space="preserve">
<style type="text/css">
	.st0{fill:#FAAF40;}
	.st1{display:none;}
	.st2{display:inline;fill-rule:evenodd;clip-rule:evenodd;}
	.st3{display:inline;fill-rule:evenodd;clip-rule:evenodd;fill:#FAAF40;}
	.st4{display:inline;fill-rule:evenodd;clip-rule:evenodd;fill:#666666;}
	.st5{display:inline;}
	.st6{fill-rule:evenodd;clip-rule:evenodd;fill:#FAAF40;}
	.st7{display:inline;fill-rule:evenodd;clip-rule:evenodd;fill:#FFFFFF;}
	.st8{display:inline;fill-rule:evenodd;clip-rule:evenodd;fill:#FBB040;}
	.st9{fill-rule:evenodd;clip-rule:evenodd;fill:#FBB040;}
	.st10{fill-rule:evenodd;clip-rule:evenodd;fill:#666666;}
</style>
<g>
	<path class="st0" d="M41.6,49.96H8.54c-4.65,0-8.43-3.79-8.43-8.44V8.41c0-4.65,3.78-8.44,8.43-8.44H41.6
		c4.65,0,8.43,3.79,8.43,8.44v33.12C50.02,46.18,46.24,49.96,41.6,49.96z M8.54,0.96c-4.1,0-7.43,3.34-7.43,7.44v33.12
		c0,4.1,3.33,7.44,7.43,7.44H41.6c4.1,0,7.43-3.34,7.43-7.44V8.41c0-4.1-3.33-7.44-7.43-7.44H8.54z"/>
</g>
<g class="st1">
	<path class="st2" d="M28.3,10.49v1.4c0.87-1.62,3.5-0.35,5.24-0.53c0.15-0.01,0.17-0.2,0-0.23C31.82,10.82,29.59,9.17,28.3,10.49z"
		/>
	<path class="st3" d="M28.3,10.49v1.4c0.87-1.62,3.5-0.35,5.24-0.53c0.15-0.01,0.17-0.2,0-0.23C31.82,10.82,29.59,9.17,28.3,10.49z"
		/>
	<path class="st4" d="M27.88,10.42c0.64-1.46,2.12-1.33,4.09-1.12l-0.01-0.98l-6.78,0.55l-0.54,3.13l-4.49-0.78l-1.67-0.29v2.99
		l1.67-0.29l4.31-0.74c-0.98,1.25-3.7,4.64-3.7,5.27v0.41h11.15v-0.41c0-0.73-4.05-5.73-4.05-5.73L27.88,10.42z"/>
	<polygon class="st3" points="13.17,14.84 17.45,14.1 17.45,10.75 13.17,10.01 	"/>
	<rect x="20.78" y="19.94" class="st3" width="11.15" height="15.31"/>
	<path class="st4" d="M20.78,36.63v1.19c0,1.72,1.39,3.11,3.11,3.11h4.93c1.72,0,3.11-1.39,3.11-3.11v-1.19H20.78z"/>
</g>
<g class="st1">
	<path class="st3" d="M33.46,15.13H17.17c-1.97,0-3.57,2.07-3.57,4.63v6.36h1.73v-6.36c0-1.7,0.97-2.89,1.84-2.89h16.28
		c0.87,0,1.83,1.19,1.83,2.89v6.36h1.74v-6.36C37.03,17.21,35.43,15.13,33.46,15.13z"/>
	<path class="st4" d="M8.2,17.22l17.12-7.15l17.15,7.18c0.67,0.25,1.53-0.47,0.88-0.73L25.31,8.91L7.28,16.43
		C6.63,16.73,7.52,17.47,8.2,17.22z"/>
	<g class="st5">
		<path class="st6" d="M17.27,39.35c0,1.12-0.9,2.02-2.02,2.02l0,0c-1.12,0-2.03-0.91-2.03-2.02v-7.23c0-1.12,0.91-2.02,2.03-2.02
			l0,0c1.12,0,2.02,0.91,2.02,2.02V39.35z"/>
		<path class="st6" d="M37.41,39.35c0,1.12-0.91,2.02-2.02,2.02l0,0c-1.12,0-2.03-0.91-2.03-2.02v-7.23c0-1.12,0.91-2.02,2.03-2.02
			l0,0c1.12,0,2.02,0.91,2.02,2.02V39.35z"/>
	</g>
	<path class="st4" d="M40.78,33.35c0,1.92-1.38,3.47-3.09,3.47H12.94c-1.71,0-3.1-1.55-3.1-3.47v-5.49c0-1.92,1.39-3.47,3.1-3.47
		h24.75c1.71,0,3.09,1.55,3.09,3.47V33.35z"/>
	<path class="st7" d="M17.5,30.6c0,1.36-1.1,2.47-2.46,2.47c-1.36,0-2.46-1.11-2.46-2.47c0-1.36,1.1-2.46,2.46-2.46
		C16.4,28.14,17.5,29.24,17.5,30.6z"/>
	<path class="st7" d="M38.06,30.6c0,1.36-1.1,2.47-2.46,2.47c-1.36,0-2.46-1.11-2.46-2.47c0-1.36,1.11-2.46,2.46-2.46
		C36.95,28.14,38.06,29.24,38.06,30.6z"/>
</g>
<g class="st1">
	<path class="st8" d="M28.29,23.73c0.02-0.01,0.03-0.02,0.05-0.03c0.3-0.16,0.54-0.39,0.78-0.62l0,0c0.39-0.2,0.77-0.41,1.12-0.68
		c0.02,0,0.04-0.01,0.05-0.03c0.21-0.09,0.43-0.17,0.64-0.26c0.93-0.39,1.89-0.72,2.91-0.75c1.2-0.03,2.4,0,3.6,0
		c0.01,0.02,0.01,0.05,0.02,0.07c-0.01,0.24-0.01,0.49-0.02,0.73c-0.01,0.2,0.07,0.29,0.27,0.27c0.25-0.03,0.45,0.06,0.65,0.19
		c0,0.02,0.01,0.04,0.02,0.05c0.17,0.43,0.08,0.87,0.08,1.3c0,0.76,0.1,1.52-0.07,2.27c-0.05,0.05-0.1,0.1-0.16,0.15
		c-0.11,0.02-0.23,0.08-0.34,0.07c-0.39-0.04-0.46,0.13-0.46,0.49c0.02,1.6,0.01,3.2,0.01,4.8c0,0.14,0.08,0.32-0.13,0.4
		c0,0,0,0,0,0c-0.07-0.1-0.19-0.12-0.3-0.16c-1.06-0.37-2.15-0.42-3.24-0.2c-0.57,0.12-1.16,0.27-1.63,0.65
		c-0.02,0-0.04,0.01-0.05,0.03c-0.11,0-0.19,0.05-0.24,0.15l0,0c-0.17,0.04-0.32,0.14-0.42,0.29c-0.02,0.01-0.03,0.02-0.04,0.03
		c-0.03,0.02-0.06,0.05-0.08,0.07l0,0c-0.36,0.21-0.64,0.5-0.86,0.86l0,0c-0.02,0.03-0.04,0.06-0.07,0.09
		c-0.02,0.01-0.03,0.03-0.03,0.04c-0.23,0.19-0.38,0.43-0.46,0.71c0,0,0,0.01,0,0.01c-0.1,0.08-0.14,0.18-0.15,0.3
		c0,0,0,0.01,0,0.01c-0.06,0.1-0.13,0.19-0.17,0.3c-0.39,0.98-0.49,2.01-0.31,3.04c0.12,0.71,0.33,1.41,0.79,1.99c0,0,0,0.01,0,0.01
		c0,0.06,0.03,0.11,0.09,0.14l0,0c0.07,0.35-0.19,0.26-0.36,0.26c-1.81,0-3.62,0-5.43,0.01c-0.37,0-0.72-0.03-1.05-0.2
		c-0.08-0.08-0.16-0.15-0.24-0.23c-0.2-0.39-0.25-0.79-0.19-1.24c0.11-0.81,0.16-1.62,0.26-2.43c0.25-2.03,0.63-4.04,1.18-6.02
		c0.27-0.96,0.63-1.89,0.95-2.83c0,0,0-0.01,0-0.01c0.3-0.58,0.6-1.15,0.91-1.73l0,0c0.1-0.05,0.14-0.13,0.16-0.23l0,0
		c0.2-0.17,0.35-0.38,0.47-0.62l0,0c0.17-0.13,0.32-0.26,0.39-0.46c0.26-0.26,0.52-0.52,0.78-0.78c0.12-0.02,0.21-0.09,0.26-0.2
		c0,0,0.01-0.01,0.01-0.01C28.23,23.78,28.26,23.76,28.29,23.73z"/>
	<path class="st4" d="M38.75,25.81c0-0.62,0.01-1.24,0.01-1.86c0.04-0.13,0.04-0.26,0-0.39c0-0.15-0.01-0.31-0.01-0.46
		c0.01-0.06,0.01-0.11,0.02-0.17c0.01-0.02,0.02-0.04,0.01-0.06c0.57-0.47,0.85-1.12,1.01-1.8c0.44-1.84,0.51-3.71,0.12-5.56
		c-0.56-2.62-2.4-4.11-5.15-4.35c-3.11-0.27-5.64,0.92-7.82,3.03c-0.76,0.73-1.42,1.55-2,2.43c-0.08,0.12-0.18,0.22-0.2,0.37
		c-0.03,0.05-0.05,0.1-0.08,0.15l0,0c-0.02,0-0.04,0.01-0.06,0.03c-0.16,0-0.33,0.01-0.49,0.01c-0.02-0.01-0.04-0.01-0.06-0.01
		c-0.57-0.21-1.13-0.41-1.63-0.78c-0.2-0.15-0.3-0.3-0.23-0.55c0.56-0.76,1.05-1.57,1.66-2.3c1.8-2.13,3.93-3.82,6.64-4.63
		c2.39-0.72,4.8-0.69,7.16,0.09c2.59,0.85,4.2,2.69,4.82,5.31c0.62,2.6,0.55,5.23-0.22,7.81c-0.45,1.49-1.28,2.75-2.69,3.53
		c-0.25,0.14-0.5,0.28-0.79,0.3C38.77,25.91,38.76,25.86,38.75,25.81z"/>
	<path class="st4" d="M39.48,37.44c0,2.44-1.99,4.41-4.45,4.41c-2.46,0-4.48-2-4.47-4.44c0.01-2.4,2.01-4.38,4.44-4.39
		C37.48,33.01,39.48,34.97,39.48,37.44z M35.05,39.72c1.27,0,2.31-1,2.31-2.25c0-1.23-1.02-2.23-2.28-2.24
		c-1.29-0.01-2.32,0.97-2.32,2.22C32.75,38.71,33.77,39.72,35.05,39.72z"/>
	<path class="st4" d="M23.34,19.57c-2.18,4.63-4.36,9.26-6.54,13.89c-0.05,0.12-0.1,0.24-0.15,0.36c-0.08,0.12-0.14,0.23-0.33,0.21
		c-0.75-0.09-1.42-0.34-1.98-0.88c-0.15-0.15-0.19-0.29-0.11-0.48c0.68-1.41,1.35-2.82,2.02-4.24c1.59-3.36,3.17-6.72,4.76-10.08
		c0.69,0.55,1.46,0.94,2.31,1.16C23.33,19.53,23.33,19.55,23.34,19.57z"/>
	<path class="st4" d="M15.4,36.41c-0.22,0.48-0.45,0.96-0.67,1.44c-0.18,0.39-0.18,0.39,0.26,0.39c0.4,0,0.8,0,1.21,0
		c0.51,0,0.9,0.22,1.17,0.65c0.28,0.45,0.57,0.9,0.85,1.35c0.26,0.42,0.15,0.65-0.34,0.65c-3.36,0-6.72,0-10.08,0
		c-0.5,0-0.62-0.22-0.37-0.63c0.28-0.47,0.58-0.92,0.87-1.38c0.27-0.43,0.67-0.63,1.18-0.63c0.61,0,1.22-0.01,1.83,0.01
		c0.25,0.01,0.37-0.08,0.47-0.3c0.4-0.88,0.83-1.76,1.24-2.64C13.77,35.76,14.54,36.18,15.4,36.41z"/>
	<path class="st8" d="M15.4,36.41c-0.86-0.22-1.63-0.65-2.38-1.1c-0.16-0.23-0.35-0.45-0.49-0.7c-0.53-0.94-0.08-1.82,1-1.95
		c0.23-0.03,0.47-0.04,0.7,0.01c-0.07,0.19-0.04,0.33,0.11,0.48c0.55,0.54,1.23,0.79,1.98,0.88c0.19,0.02,0.25-0.09,0.33-0.21
		c0.34,0.28,0.58,0.63,0.68,1.06c0.16,0.7-0.19,1.25-0.89,1.45C16.1,36.42,15.75,36.38,15.4,36.41z M13.53,34.61l-0.02-0.02
		L13.53,34.61c0.11,0.18,0.27,0.31,0.46,0.4c0.11,0.07,0.21,0.14,0.32,0.21c0.17,0.09,0.34,0.17,0.5,0.27
		c0.44,0.25,0.91,0.37,1.41,0.35c0.39-0.02,0.5-0.18,0.48-0.56c-0.75,0.26-1.46,0.05-2.17-0.19c-0.09-0.13-0.24-0.1-0.36-0.17
		C13.97,34.79,13.77,34.67,13.53,34.61z"/>
	<path class="st8" d="M23.33,19.5c-0.86-0.22-1.63-0.6-2.31-1.16c-0.14-0.2-0.31-0.39-0.43-0.6c-0.26-0.47-0.33-0.96,0.02-1.43
		c0.31-0.41,1.05-0.62,1.59-0.47c-0.07,0.25,0.03,0.4,0.23,0.55c0.5,0.36,1.06,0.57,1.63,0.78c0.02,0,0.04,0.01,0.06,0.01
		c0.16,0,0.33-0.01,0.49-0.01c0.04,0.04,0.05,0.01,0.06-0.03c0,0,0,0,0,0c0.07,0,0.13-0.01,0.2-0.02c0,0,0,0,0,0
		c0,0.05,0.02,0.08,0.08,0.08c0,0,0,0,0,0c-0.04,0.19,0.07,0.27,0.23,0.32c0,0,0,0,0,0c0.04,0.31,0.15,0.59,0.27,0.88
		c-0.01,0.05-0.01,0.1-0.02,0.15c-0.18,0.12-0.19,0.32-0.25,0.5l-0.02-0.02c0,0,0.02,0.02,0.02,0.01c-0.05,0-0.08,0.03-0.07,0.08
		c0,0,0,0.01,0,0.01c-0.45,0.17-0.89,0.37-1.39,0.29C23.57,19.41,23.43,19.4,23.33,19.5z M22.26,18.4L22.26,18.4
		c0.03,0.02,0.06,0.04,0.09,0.06l-0.02,0.01l0.02-0.01c0.01,0.09,0.07,0.1,0.15,0.09l0,0c0.03,0.08,0.08,0.09,0.16,0.08l0,0
		c0.02,0.22,0.18,0.15,0.31,0.16l0,0c0.27,0.24,0.56,0.38,0.93,0.26c0.05,0,0.1,0.01,0.15,0.01c0.2,0.24,0.37,0.06,0.55-0.04
		l0.01-0.01l0.02,0c0.06,0,0.09-0.03,0.11-0.08c0-0.02,0.01-0.04,0.02-0.05c0.34-0.18,0.29-0.45,0.15-0.81
		c-0.23,0.46-0.6,0.44-0.98,0.42c-0.17-0.01-0.33-0.06-0.49-0.08c-0.33-0.05-0.62-0.26-0.97-0.22l0.01,0
		c-0.26-0.27-0.61-0.34-0.99-0.47c0.05,0.21,0.17,0.29,0.31,0.37c0.05,0.03,0.1,0.06,0.14,0.1c0.03,0.02,0.06,0.04,0.09,0.06l0,0
		c0.03,0.07,0.08,0.09,0.15,0.09l0,0C22.21,18.36,22.23,18.38,22.26,18.4z"/>
</g>
<g>
	<path class="st9" d="M32.45,29.13c0,4.07-3.31,7.38-7.38,7.38c-4.07,0-7.38-3.31-7.38-7.38H15c0,5.56,4.51,10.07,10.07,10.07
		c5.56,0,10.06-4.51,10.06-10.07H32.45z"/>
	<path class="st10" d="M16.41,26.15c2.67-0.76,5.58-1.18,8.65-1.18c3.07,0,5.99,0.42,8.65,1.18c1.94-5.21,6.02-9.38,11.2-11.41
		v-0.03l-20.8-3.98L5.22,14.61v0.13C10.39,16.77,14.47,20.94,16.41,26.15z"/>
</g>
</svg>
