<?xml version="1.0" encoding="utf-8"?>
<!-- Generator: Adobe Illustrator 24.0.1, SVG Export Plug-In . SVG Version: 6.00 Build 0)  -->
<svg version="1.1" id="Layer_1" xmlns="http://www.w3.org/2000/svg" xmlns:xlink="http://www.w3.org/1999/xlink" x="0px" y="0px"
	 viewBox="0 0 50 50" style="enable-background:new 0 0 50 50;" xml:space="preserve">
<style type="text/css">
	.st0{fill:#FAAF40;}
	.st1{display:none;}
	.st2{display:inline;fill-rule:evenodd;clip-rule:evenodd;}
	.st3{display:inline;fill-rule:evenodd;clip-rule:evenodd;fill:#FAAF40;}
	.st4{display:inline;fill-rule:evenodd;clip-rule:evenodd;fill:#666666;}
	.st5{fill-rule:evenodd;clip-rule:evenodd;fill:#FAAF40;}
	.st6{fill-rule:evenodd;clip-rule:evenodd;fill:#666666;}
	.st7{fill-rule:evenodd;clip-rule:evenodd;fill:#FFFFFF;}
</style>
<g>
	<path class="st0" d="M41.56,50H8.44C3.79,50,0,46.22,0,41.58V8.56c0-4.64,3.79-8.42,8.44-8.42h33.12c4.65,0,8.44,3.78,8.44,8.42
		v33.02C50,46.22,46.21,50,41.56,50z M8.44,1.14C4.34,1.14,1,4.47,1,8.56v33.02C1,45.67,4.34,49,8.44,49h33.12
		c4.1,0,7.44-3.33,7.44-7.42V8.56c0-4.09-3.34-7.42-7.44-7.42H8.44z"/>
</g>
<g class="st1">
	<path class="st2" d="M28.3,10.49v1.4c0.87-1.62,3.5-0.35,5.24-0.53c0.15-0.01,0.17-0.2,0-0.23C31.82,10.82,29.59,9.17,28.3,10.49z"
		/>
	<path class="st3" d="M28.3,10.49v1.4c0.87-1.62,3.5-0.35,5.24-0.53c0.15-0.01,0.17-0.2,0-0.23C31.82,10.82,29.59,9.17,28.3,10.49z"
		/>
	<path class="st4" d="M27.88,10.42c0.64-1.46,2.12-1.33,4.09-1.12l-0.01-0.98l-6.78,0.55l-0.54,3.13l-4.49-0.78l-1.67-0.29v2.99
		l1.67-0.29l4.31-0.74c-0.98,1.25-3.7,4.64-3.7,5.27v0.41h11.15v-0.41c0-0.73-4.05-5.73-4.05-5.73L27.88,10.42z"/>
	<polygon class="st3" points="13.17,14.84 17.45,14.1 17.45,10.75 13.17,10.01 	"/>
	<rect x="20.78" y="19.94" class="st3" width="11.15" height="15.31"/>
	<path class="st4" d="M20.78,36.63v1.19c0,1.72,1.39,3.11,3.11,3.11h4.93c1.72,0,3.11-1.39,3.11-3.11v-1.19H20.78z"/>
</g>
<g>
	<path class="st5" d="M33.46,15.13H17.17c-1.97,0-3.57,2.07-3.57,4.63v6.36h1.73v-6.36c0-1.7,0.97-2.89,1.84-2.89h16.28
		c0.87,0,1.83,1.19,1.83,2.89v6.36h1.74v-6.36C37.03,17.21,35.43,15.13,33.46,15.13z"/>
	<path class="st6" d="M8.2,17.22l17.12-7.15l17.15,7.18c0.67,0.25,1.53-0.47,0.88-0.73L25.31,8.91L7.28,16.43
		C6.63,16.73,7.52,17.47,8.2,17.22z"/>
	<g>
		<path class="st5" d="M17.27,39.35c0,1.12-0.9,2.02-2.02,2.02l0,0c-1.12,0-2.03-0.91-2.03-2.02v-7.23c0-1.12,0.91-2.02,2.03-2.02
			l0,0c1.12,0,2.02,0.91,2.02,2.02V39.35z"/>
		<path class="st5" d="M37.41,39.35c0,1.12-0.91,2.02-2.02,2.02l0,0c-1.12,0-2.03-0.91-2.03-2.02v-7.23c0-1.12,0.91-2.02,2.03-2.02
			l0,0c1.12,0,2.02,0.91,2.02,2.02V39.35z"/>
	</g>
	<path class="st6" d="M40.78,33.35c0,1.92-1.38,3.47-3.09,3.47H12.94c-1.71,0-3.1-1.55-3.1-3.47v-5.49c0-1.92,1.39-3.47,3.1-3.47
		h24.75c1.71,0,3.09,1.55,3.09,3.47V33.35z"/>
	<path class="st7" d="M17.5,30.6c0,1.36-1.1,2.47-2.46,2.47c-1.36,0-2.46-1.11-2.46-2.47c0-1.36,1.1-2.46,2.46-2.46
		C16.4,28.14,17.5,29.24,17.5,30.6z"/>
	<path class="st7" d="M38.06,30.6c0,1.36-1.1,2.47-2.46,2.47c-1.36,0-2.46-1.11-2.46-2.47c0-1.36,1.11-2.46,2.46-2.46
		C36.95,28.14,38.06,29.24,38.06,30.6z"/>
</g>
</svg>
