<?xml version="1.0" encoding="utf-8"?>
<!-- Generator: Adobe Illustrator 24.0.1, SVG Export Plug-In . SVG Version: 6.00 Build 0)  -->
<svg version="1.1" id="Layer_1" xmlns="http://www.w3.org/2000/svg" xmlns:xlink="http://www.w3.org/1999/xlink" x="0px" y="0px"
	 viewBox="0 0 50 50" style="enable-background:new 0 0 50 50;" xml:space="preserve">
<style type="text/css">
	.st0{display:none;}
	.st1{display:inline;fill-rule:evenodd;clip-rule:evenodd;}
	.st2{display:inline;fill-rule:evenodd;clip-rule:evenodd;fill:#FAAF40;}
	.st3{display:inline;fill-rule:evenodd;clip-rule:evenodd;fill:#666666;}
	.st4{display:inline;}
	.st5{fill-rule:evenodd;clip-rule:evenodd;fill:#FAAF40;}
	.st6{display:inline;fill-rule:evenodd;clip-rule:evenodd;fill:#FFFFFF;}
	.st7{display:inline;fill-rule:evenodd;clip-rule:evenodd;fill:#FBB040;}
	.st8{fill:#666666;}
	.st9{display:inline;fill:#FBB040;}
	.st10{display:inline;fill:#FAAF40;}
	.st11{display:inline;fill:#666666;}
	.st12{display:none;fill:#666666;}
	.st13{fill:#FAAF40;}
	.st14{display:inline;fill:#FFFFFF;}
	.st15{fill-rule:evenodd;clip-rule:evenodd;fill:#FBB040;}
	.st16{fill-rule:evenodd;clip-rule:evenodd;fill:#282828;}
	.st17{fill-rule:evenodd;clip-rule:evenodd;fill:#666666;}
</style>
<g class="st0">
	<path class="st1" d="M28.3,10.49v1.4c0.87-1.62,3.5-0.35,5.24-0.53c0.15-0.01,0.17-0.2,0-0.23C31.82,10.82,29.59,9.17,28.3,10.49z"
		/>
	<path class="st2" d="M28.3,10.49v1.4c0.87-1.62,3.5-0.35,5.24-0.53c0.15-0.01,0.17-0.2,0-0.23C31.82,10.82,29.59,9.17,28.3,10.49z"
		/>
	<path class="st3" d="M27.88,10.42c0.64-1.46,2.12-1.33,4.09-1.12l-0.01-0.98l-6.78,0.55l-0.54,3.13l-4.49-0.78l-1.67-0.29v2.99
		l1.67-0.29l4.31-0.74c-0.98,1.25-3.7,4.64-3.7,5.27v0.41h11.15v-0.41c0-0.73-4.05-5.73-4.05-5.73L27.88,10.42z"/>
	<polygon class="st2" points="13.17,14.84 17.45,14.1 17.45,10.75 13.17,10.01 	"/>
	<rect x="20.78" y="19.94" class="st2" width="11.15" height="15.31"/>
	<path class="st3" d="M20.78,36.63v1.19c0,1.72,1.39,3.11,3.11,3.11h4.93c1.72,0,3.11-1.39,3.11-3.11v-1.19H20.78z"/>
</g>
<g class="st0">
	<path class="st2" d="M33.46,15.13H17.17c-1.97,0-3.57,2.07-3.57,4.63v6.36h1.73v-6.36c0-1.7,0.97-2.89,1.84-2.89h16.28
		c0.87,0,1.83,1.19,1.83,2.89v6.36h1.74v-6.36C37.03,17.21,35.43,15.13,33.46,15.13z"/>
	<path class="st3" d="M8.2,17.22l17.12-7.15l17.15,7.18c0.67,0.25,1.53-0.47,0.88-0.73L25.31,8.91L7.28,16.43
		C6.63,16.73,7.52,17.47,8.2,17.22z"/>
	<g class="st4">
		<path class="st5" d="M17.27,39.35c0,1.12-0.9,2.02-2.02,2.02l0,0c-1.12,0-2.03-0.91-2.03-2.02v-7.23c0-1.12,0.91-2.02,2.03-2.02
			l0,0c1.12,0,2.02,0.91,2.02,2.02V39.35z"/>
		<path class="st5" d="M37.41,39.35c0,1.12-0.91,2.02-2.02,2.02l0,0c-1.12,0-2.03-0.91-2.03-2.02v-7.23c0-1.12,0.91-2.02,2.03-2.02
			l0,0c1.12,0,2.02,0.91,2.02,2.02V39.35z"/>
	</g>
	<path class="st3" d="M40.78,33.35c0,1.92-1.38,3.47-3.09,3.47H12.94c-1.71,0-3.1-1.55-3.1-3.47v-5.49c0-1.92,1.39-3.47,3.1-3.47
		h24.75c1.71,0,3.09,1.55,3.09,3.47V33.35z"/>
	<path class="st6" d="M17.5,30.6c0,1.36-1.1,2.47-2.46,2.47c-1.36,0-2.46-1.11-2.46-2.47c0-1.36,1.1-2.46,2.46-2.46
		C16.4,28.14,17.5,29.24,17.5,30.6z"/>
	<path class="st6" d="M38.06,30.6c0,1.36-1.1,2.47-2.46,2.47c-1.36,0-2.46-1.11-2.46-2.47c0-1.36,1.11-2.46,2.46-2.46
		C36.95,28.14,38.06,29.24,38.06,30.6z"/>
</g>
<g class="st0">
	<path class="st7" d="M28.29,23.73c0.02-0.01,0.03-0.02,0.05-0.03c0.3-0.16,0.54-0.39,0.78-0.62l0,0c0.39-0.2,0.77-0.41,1.12-0.68
		c0.02,0,0.04-0.01,0.05-0.03c0.21-0.09,0.43-0.17,0.64-0.26c0.93-0.39,1.89-0.72,2.91-0.75c1.2-0.03,2.4,0,3.6,0
		c0.01,0.02,0.01,0.05,0.02,0.07c-0.01,0.24-0.01,0.49-0.02,0.73c-0.01,0.2,0.07,0.29,0.27,0.27c0.25-0.03,0.45,0.06,0.65,0.19
		c0,0.02,0.01,0.04,0.02,0.05c0.17,0.43,0.08,0.87,0.08,1.3c0,0.76,0.1,1.52-0.07,2.27c-0.05,0.05-0.1,0.1-0.16,0.15
		c-0.11,0.02-0.23,0.08-0.34,0.07c-0.39-0.04-0.46,0.13-0.46,0.49c0.02,1.6,0.01,3.2,0.01,4.8c0,0.14,0.08,0.32-0.13,0.4
		c0,0,0,0,0,0c-0.07-0.1-0.19-0.12-0.3-0.16c-1.06-0.37-2.15-0.42-3.24-0.2c-0.57,0.12-1.16,0.27-1.63,0.65
		c-0.02,0-0.04,0.01-0.05,0.03c-0.11,0-0.19,0.05-0.24,0.15l0,0c-0.17,0.04-0.32,0.14-0.42,0.29c-0.02,0.01-0.03,0.02-0.04,0.03
		c-0.03,0.02-0.06,0.05-0.08,0.07l0,0c-0.36,0.21-0.64,0.5-0.86,0.86l0,0c-0.02,0.03-0.04,0.06-0.07,0.09
		c-0.02,0.01-0.03,0.03-0.03,0.04c-0.23,0.19-0.38,0.43-0.46,0.71c0,0,0,0.01,0,0.01c-0.1,0.08-0.14,0.18-0.15,0.3
		c0,0,0,0.01,0,0.01c-0.06,0.1-0.13,0.19-0.17,0.3c-0.39,0.98-0.49,2.01-0.31,3.04c0.12,0.71,0.33,1.41,0.79,1.99c0,0,0,0.01,0,0.01
		c0,0.06,0.03,0.11,0.09,0.14l0,0c0.07,0.35-0.19,0.26-0.36,0.26c-1.81,0-3.62,0-5.43,0.01c-0.37,0-0.72-0.03-1.05-0.2
		c-0.08-0.08-0.16-0.15-0.24-0.23c-0.2-0.39-0.25-0.79-0.19-1.24c0.11-0.81,0.16-1.62,0.26-2.43c0.25-2.03,0.63-4.04,1.18-6.02
		c0.27-0.96,0.63-1.89,0.95-2.83c0,0,0-0.01,0-0.01c0.3-0.58,0.6-1.15,0.91-1.73l0,0c0.1-0.05,0.14-0.13,0.16-0.23l0,0
		c0.2-0.17,0.35-0.38,0.47-0.62l0,0c0.17-0.13,0.32-0.26,0.39-0.46c0.26-0.26,0.52-0.52,0.78-0.78c0.12-0.02,0.21-0.09,0.26-0.2
		c0,0,0.01-0.01,0.01-0.01C28.23,23.78,28.26,23.76,28.29,23.73z"/>
	<path class="st3" d="M38.75,25.81c0-0.62,0.01-1.24,0.01-1.86c0.04-0.13,0.04-0.26,0-0.39c0-0.15-0.01-0.31-0.01-0.46
		c0.01-0.06,0.01-0.11,0.02-0.17c0.01-0.02,0.02-0.04,0.01-0.06c0.57-0.47,0.85-1.12,1.01-1.8c0.44-1.84,0.51-3.71,0.12-5.56
		c-0.56-2.62-2.4-4.11-5.15-4.35c-3.11-0.27-5.64,0.92-7.82,3.03c-0.76,0.73-1.42,1.55-2,2.43c-0.08,0.12-0.18,0.22-0.2,0.37
		c-0.03,0.05-0.05,0.1-0.08,0.15l0,0c-0.02,0-0.04,0.01-0.06,0.03c-0.16,0-0.33,0.01-0.49,0.01c-0.02-0.01-0.04-0.01-0.06-0.01
		c-0.57-0.21-1.13-0.41-1.63-0.78c-0.2-0.15-0.3-0.3-0.23-0.55c0.56-0.76,1.05-1.57,1.66-2.3c1.8-2.13,3.93-3.82,6.64-4.63
		c2.39-0.72,4.8-0.69,7.16,0.09c2.59,0.85,4.2,2.69,4.82,5.31c0.62,2.6,0.55,5.23-0.22,7.81c-0.45,1.49-1.28,2.75-2.69,3.53
		c-0.25,0.14-0.5,0.28-0.79,0.3C38.77,25.91,38.76,25.86,38.75,25.81z"/>
	<path class="st3" d="M39.48,37.44c0,2.44-1.99,4.41-4.45,4.41c-2.46,0-4.48-2-4.47-4.44c0.01-2.4,2.01-4.38,4.44-4.39
		C37.48,33.01,39.48,34.97,39.48,37.44z M35.05,39.72c1.27,0,2.31-1,2.31-2.25c0-1.23-1.02-2.23-2.28-2.24
		c-1.29-0.01-2.32,0.97-2.32,2.22C32.75,38.71,33.77,39.72,35.05,39.72z"/>
	<path class="st3" d="M23.34,19.57c-2.18,4.63-4.36,9.26-6.54,13.89c-0.05,0.12-0.1,0.24-0.15,0.36c-0.08,0.12-0.14,0.23-0.33,0.21
		c-0.75-0.09-1.42-0.34-1.98-0.88c-0.15-0.15-0.19-0.29-0.11-0.48c0.68-1.41,1.35-2.82,2.02-4.24c1.59-3.36,3.17-6.72,4.76-10.08
		c0.69,0.55,1.46,0.94,2.31,1.16C23.33,19.53,23.33,19.55,23.34,19.57z"/>
	<path class="st3" d="M15.4,36.41c-0.22,0.48-0.45,0.96-0.67,1.44c-0.18,0.39-0.18,0.39,0.26,0.39c0.4,0,0.8,0,1.21,0
		c0.51,0,0.9,0.22,1.17,0.65c0.28,0.45,0.57,0.9,0.85,1.35c0.26,0.42,0.15,0.65-0.34,0.65c-3.36,0-6.72,0-10.08,0
		c-0.5,0-0.62-0.22-0.37-0.63c0.28-0.47,0.58-0.92,0.87-1.38c0.27-0.43,0.67-0.63,1.18-0.63c0.61,0,1.22-0.01,1.83,0.01
		c0.25,0.01,0.37-0.08,0.47-0.3c0.4-0.88,0.83-1.76,1.24-2.64C13.77,35.76,14.54,36.18,15.4,36.41z"/>
	<path class="st7" d="M15.4,36.41c-0.86-0.22-1.63-0.65-2.38-1.1c-0.16-0.23-0.35-0.45-0.49-0.7c-0.53-0.94-0.08-1.82,1-1.95
		c0.23-0.03,0.47-0.04,0.7,0.01c-0.07,0.19-0.04,0.33,0.11,0.48c0.55,0.54,1.23,0.79,1.98,0.88c0.19,0.02,0.25-0.09,0.33-0.21
		c0.34,0.28,0.58,0.63,0.68,1.06c0.16,0.7-0.19,1.25-0.89,1.45C16.1,36.42,15.75,36.38,15.4,36.41z M13.53,34.61l-0.02-0.02
		L13.53,34.61c0.11,0.18,0.27,0.31,0.46,0.4c0.11,0.07,0.21,0.14,0.32,0.21c0.17,0.09,0.34,0.17,0.5,0.27
		c0.44,0.25,0.91,0.37,1.41,0.35c0.39-0.02,0.5-0.18,0.48-0.56c-0.75,0.26-1.46,0.05-2.17-0.19c-0.09-0.13-0.24-0.1-0.36-0.17
		C13.97,34.79,13.77,34.67,13.53,34.61z"/>
	<path class="st7" d="M23.33,19.5c-0.86-0.22-1.63-0.6-2.31-1.16c-0.14-0.2-0.31-0.39-0.43-0.6c-0.26-0.47-0.33-0.96,0.02-1.43
		c0.31-0.41,1.05-0.62,1.59-0.47c-0.07,0.25,0.03,0.4,0.23,0.55c0.5,0.36,1.06,0.57,1.63,0.78c0.02,0,0.04,0.01,0.06,0.01
		c0.16,0,0.33-0.01,0.49-0.01c0.04,0.04,0.05,0.01,0.06-0.03c0,0,0,0,0,0c0.07,0,0.13-0.01,0.2-0.02c0,0,0,0,0,0
		c0,0.05,0.02,0.08,0.08,0.08c0,0,0,0,0,0c-0.04,0.19,0.07,0.27,0.23,0.32c0,0,0,0,0,0c0.04,0.31,0.15,0.59,0.27,0.88
		c-0.01,0.05-0.01,0.1-0.02,0.15c-0.18,0.12-0.19,0.32-0.25,0.5l-0.02-0.02c0,0,0.02,0.02,0.02,0.01c-0.05,0-0.08,0.03-0.07,0.08
		c0,0,0,0.01,0,0.01c-0.45,0.17-0.89,0.37-1.39,0.29C23.57,19.41,23.43,19.4,23.33,19.5z M22.26,18.4L22.26,18.4
		c0.03,0.02,0.06,0.04,0.09,0.06l-0.02,0.01l0.02-0.01c0.01,0.09,0.07,0.1,0.15,0.09l0,0c0.03,0.08,0.08,0.09,0.16,0.08l0,0
		c0.02,0.22,0.18,0.15,0.31,0.16l0,0c0.27,0.24,0.56,0.38,0.93,0.26c0.05,0,0.1,0.01,0.15,0.01c0.2,0.24,0.37,0.06,0.55-0.04
		l0.01-0.01l0.02,0c0.06,0,0.09-0.03,0.11-0.08c0-0.02,0.01-0.04,0.02-0.05c0.34-0.18,0.29-0.45,0.15-0.81
		c-0.23,0.46-0.6,0.44-0.98,0.42c-0.17-0.01-0.33-0.06-0.49-0.08c-0.33-0.05-0.62-0.26-0.97-0.22l0.01,0
		c-0.26-0.27-0.61-0.34-0.99-0.47c0.05,0.21,0.17,0.29,0.31,0.37c0.05,0.03,0.1,0.06,0.14,0.1c0.03,0.02,0.06,0.04,0.09,0.06l0,0
		c0.03,0.07,0.08,0.09,0.15,0.09l0,0C22.21,18.36,22.23,18.38,22.26,18.4z"/>
</g>
<g class="st0">
	<path class="st7" d="M32.45,29.13c0,4.07-3.31,7.38-7.38,7.38c-4.07,0-7.38-3.31-7.38-7.38H15c0,5.56,4.51,10.07,10.07,10.07
		c5.56,0,10.06-4.51,10.06-10.07H32.45z"/>
	<path class="st3" d="M16.41,26.15c2.67-0.76,5.58-1.18,8.65-1.18c3.07,0,5.99,0.42,8.65,1.18c1.94-5.21,6.02-9.38,11.2-11.41v-0.03
		l-20.8-3.98L5.22,14.61v0.13C10.39,16.77,14.47,20.94,16.41,26.15z"/>
</g>
<g class="st0">
	<g class="st4">
		<path class="st8" d="M38.35,36.46c0,0.45-0.36,0.81-0.8,0.81H12.89c-0.44,0-0.8-0.36-0.8-0.81l0,0c0-0.45,0.36-0.81,0.8-0.81
			h24.66C37.99,35.66,38.35,36.02,38.35,36.46L38.35,36.46z"/>
		<rect x="27.47" y="34.05" class="st8" width="4.39" height="2.01"/>
		<rect x="18.58" y="34.05" class="st8" width="4.39" height="2.01"/>
	</g>
	<path class="st9" d="M39.03,12.99H11.41c-2.3,0-4.17,1.99-4.17,4.44v12.64c0,2.45,1.86,4.44,4.17,4.44h27.63
		c2.3,0,4.16-1.99,4.16-4.44V17.43C43.19,14.98,41.33,12.99,39.03,12.99z M12.18,27.58c0,0.37-0.54,0.67-1.21,0.67
		c-0.66,0-1.2-0.3-1.2-0.67v-8.59c0-0.37,0.54-0.67,1.2-0.67c0.67,0,1.21,0.31,1.21,0.67V27.58z M25.22,33.46
		c-0.45,0-0.81-0.36-0.81-0.81c0-0.45,0.36-0.8,0.81-0.8c0.45,0,0.81,0.36,0.81,0.8C26.03,33.1,25.67,33.46,25.22,33.46z
		 M35.82,28.96c0,0.96-0.63,1.74-1.41,1.74h-18.4c-0.78,0-1.41-0.78-1.41-1.74V18.55c0-0.96,0.63-1.74,1.41-1.74h18.4
		c0.78,0,1.41,0.78,1.41,1.74V28.96z M40.67,27.58c0,0.37-0.54,0.67-1.21,0.67c-0.66,0-1.2-0.3-1.2-0.67v-8.59
		c0-0.37,0.54-0.67,1.2-0.67c0.67,0,1.21,0.31,1.21,0.67V27.58z"/>
</g>
<g class="st0">
	<path class="st10" d="M41.66,50.03H8.67c-4.64,0-8.41-3.77-8.41-8.41V8.63c0-4.64,3.77-8.41,8.41-8.41h32.99
		c4.64,0,8.41,3.77,8.41,8.41v32.99C50.07,46.25,46.29,50.03,41.66,50.03z M8.67,1.22c-4.09,0-7.41,3.33-7.41,7.41v32.99
		c0,4.09,3.33,7.41,7.41,7.41h32.99c4.09,0,7.41-3.32,7.41-7.41V8.63c0-4.09-3.32-7.41-7.41-7.41H8.67z"/>
</g>
<g class="st0">
	<path class="st9" d="M37.33,15.46H13c-1.24,0-2.24,1-2.24,2.24v14.83c0,1.24,1,2.24,2.24,2.25h24.33c1.24,0,2.24-1,2.24-2.25V17.71
		C39.57,16.47,38.57,15.47,37.33,15.46z M13,17.42h24.33c0.16,0,0.29,0.13,0.29,0.29v1.72H12.71v-1.72
		C12.71,17.55,12.84,17.42,13,17.42z M37.33,32.83H13c-0.16,0-0.29-0.13-0.29-0.29v-8.03h24.91v8.03
		C37.62,32.7,37.49,32.83,37.33,32.83z"/>
	<polygon class="st11" points="14.32,26.77 14.32,26.77 14.05,26.9 13.99,26.65 14.37,26.48 14.64,26.48 14.64,27.89 14.32,27.89 	
		"/>
	<polygon class="st11" points="15.53,26.77 15.52,26.77 15.25,26.9 15.2,26.65 15.57,26.48 15.85,26.48 15.85,27.89 15.53,27.89 	
		"/>
	<polygon class="st11" points="16.73,26.77 16.73,26.77 16.46,26.9 16.4,26.65 16.78,26.48 17.05,26.48 17.05,27.89 16.73,27.89 	
		"/>
	<polygon class="st11" points="17.94,26.77 17.93,26.77 17.66,26.9 17.61,26.65 17.98,26.48 18.26,26.48 18.26,27.89 17.94,27.89 	
		"/>
	<polygon class="st11" points="19.14,26.77 19.14,26.77 18.87,26.9 18.81,26.65 19.19,26.48 19.46,26.48 19.46,27.89 19.14,27.89 	
		"/>
	<polygon class="st11" points="20.35,26.77 20.34,26.77 20.07,26.9 20.02,26.65 20.39,26.48 20.67,26.48 20.67,27.89 20.35,27.89 	
		"/>
	<polygon class="st11" points="21.55,26.77 21.55,26.77 21.28,26.9 21.22,26.65 21.6,26.48 21.87,26.48 21.87,27.89 21.55,27.89 	
		"/>
	<polygon class="st11" points="22.76,26.77 22.75,26.77 22.48,26.9 22.43,26.65 22.8,26.48 23.08,26.48 23.08,27.89 22.76,27.89 	
		"/>
	<polygon class="st11" points="23.96,26.77 23.96,26.77 23.69,26.9 23.63,26.65 24.01,26.48 24.28,26.48 24.28,27.89 23.96,27.89 	
		"/>
	<polygon class="st11" points="25.17,26.77 25.16,26.77 24.89,26.9 24.84,26.65 25.21,26.48 25.49,26.48 25.49,27.89 25.17,27.89 	
		"/>
	<polygon class="st11" points="26.37,26.77 26.37,26.77 26.1,26.9 26.05,26.65 26.42,26.48 26.69,26.48 26.69,27.89 26.37,27.89 	
		"/>
	<polygon class="st11" points="27.58,26.77 27.57,26.77 27.3,26.9 27.25,26.65 27.62,26.48 27.9,26.48 27.9,27.89 27.58,27.89 	"/>
	<polygon class="st11" points="28.78,26.77 28.78,26.77 28.51,26.9 28.46,26.65 28.83,26.48 29.1,26.48 29.1,27.89 28.78,27.89 	"/>
	<polygon class="st11" points="29.99,26.77 29.98,26.77 29.71,26.9 29.66,26.65 30.04,26.48 30.31,26.48 30.31,27.89 29.99,27.89 	
		"/>
	<polygon class="st11" points="31.19,26.77 31.19,26.77 30.92,26.9 30.87,26.65 31.24,26.48 31.51,26.48 31.51,27.89 31.19,27.89 	
		"/>
	<polygon class="st11" points="32.4,26.77 32.39,26.77 32.13,26.9 32.07,26.65 32.44,26.48 32.72,26.48 32.72,27.89 32.4,27.89 	"/>
	<polygon class="st11" points="33.6,26.77 33.6,26.77 33.33,26.9 33.28,26.65 33.65,26.48 33.92,26.48 33.92,27.89 33.6,27.89 	"/>
	<polygon class="st11" points="34.81,26.77 34.8,26.77 34.54,26.9 34.48,26.65 34.85,26.48 35.13,26.48 35.13,27.89 34.81,27.89 	
		"/>
	<polygon class="st11" points="36.01,26.77 36.01,26.77 35.74,26.9 35.69,26.65 36.06,26.48 36.33,26.48 36.33,27.89 36.01,27.89 	
		"/>
	<polygon class="st11" points="14.32,29.38 14.32,29.38 14.05,29.51 13.99,29.26 14.37,29.08 14.64,29.08 14.64,30.5 14.32,30.5 	
		"/>
	<polygon class="st11" points="15.53,29.38 15.52,29.38 15.25,29.51 15.2,29.26 15.57,29.08 15.85,29.08 15.85,30.5 15.53,30.5 	"/>
	<polygon class="st11" points="16.73,29.38 16.73,29.38 16.46,29.51 16.4,29.26 16.78,29.08 17.05,29.08 17.05,30.5 16.73,30.5 	"/>
	<polygon class="st11" points="17.94,29.38 17.93,29.38 17.66,29.51 17.61,29.26 17.98,29.08 18.26,29.08 18.26,30.5 17.94,30.5 	
		"/>
	<polygon class="st11" points="19.14,29.38 19.14,29.38 18.87,29.51 18.81,29.26 19.19,29.08 19.46,29.08 19.46,30.5 19.14,30.5 	
		"/>
	<polygon class="st11" points="20.35,29.38 20.34,29.38 20.07,29.51 20.02,29.26 20.39,29.08 20.67,29.08 20.67,30.5 20.35,30.5 	
		"/>
	<polygon class="st11" points="21.55,29.38 21.55,29.38 21.28,29.51 21.22,29.26 21.6,29.08 21.87,29.08 21.87,30.5 21.55,30.5 	"/>
	<polygon class="st11" points="22.76,29.38 22.75,29.38 22.48,29.51 22.43,29.26 22.8,29.08 23.08,29.08 23.08,30.5 22.76,30.5 	"/>
	<polygon class="st11" points="23.96,29.38 23.96,29.38 23.69,29.51 23.63,29.26 24.01,29.08 24.28,29.08 24.28,30.5 23.96,30.5 	
		"/>
	<polygon class="st11" points="25.17,29.38 25.16,29.38 24.89,29.51 24.84,29.26 25.21,29.08 25.49,29.08 25.49,30.5 25.17,30.5 	
		"/>
	<polygon class="st11" points="26.37,29.38 26.37,29.38 26.1,29.51 26.05,29.26 26.42,29.08 26.69,29.08 26.69,30.5 26.37,30.5 	"/>
	<polygon class="st11" points="27.58,29.38 27.57,29.38 27.3,29.51 27.25,29.26 27.62,29.08 27.9,29.08 27.9,30.5 27.58,30.5 	"/>
	<polygon class="st11" points="28.78,29.38 28.78,29.38 28.51,29.51 28.46,29.26 28.83,29.08 29.1,29.08 29.1,30.5 28.78,30.5 	"/>
	<polygon class="st11" points="29.99,29.38 29.98,29.38 29.71,29.51 29.66,29.26 30.04,29.08 30.31,29.08 30.31,30.5 29.99,30.5 	
		"/>
	<polygon class="st11" points="31.19,29.38 31.19,29.38 30.92,29.51 30.87,29.26 31.24,29.08 31.51,29.08 31.51,30.5 31.19,30.5 	
		"/>
	<polygon class="st11" points="32.4,29.38 32.39,29.38 32.13,29.51 32.07,29.26 32.44,29.08 32.72,29.08 32.72,30.5 32.4,30.5 	"/>
	<polygon class="st11" points="33.6,29.38 33.6,29.38 33.33,29.51 33.28,29.26 33.65,29.08 33.92,29.08 33.92,30.5 33.6,30.5 	"/>
	<polygon class="st11" points="34.81,29.38 34.8,29.38 34.54,29.51 34.48,29.26 34.85,29.08 35.13,29.08 35.13,30.5 34.81,30.5 	"/>
	<polygon class="st11" points="36.01,29.38 36.01,29.38 35.74,29.51 35.69,29.26 36.06,29.08 36.33,29.08 36.33,30.5 36.01,30.5 	
		"/>
</g>
<rect x="13.33" y="17.54" class="st12" width="23.67" height="1.17"/>
<g>
	<path class="st13" d="M25.04,50.09c-13.78,0-25-11.21-25-25c0-13.78,11.22-25,25-25c13.79,0,25,11.22,25,25
		C50.04,38.88,38.83,50.09,25.04,50.09z M25.04,1.11c-13.22,0-23.98,10.76-23.98,23.98s10.76,23.98,23.98,23.98
		s23.98-10.76,23.98-23.98S38.26,1.11,25.04,1.11z"/>
</g>
<g class="st0">
	<path class="st9" d="M33.29,11.03H14.74c-1.36,0-2.46,1.09-2.46,2.45v23.04c0,1.35,1.1,2.45,2.46,2.45h18.55
		c1.36,0,2.46-1.1,2.46-2.45V13.48C35.74,12.12,34.64,11.03,33.29,11.03z M32.67,35.91H15.35V14.09h17.32V35.91z"/>
	<path class="st11" d="M18.51,17.11c0,0.59-0.48,1.07-1.07,1.07c-0.59,0-1.07-0.48-1.07-1.07c0-0.59,0.48-1.07,1.07-1.07
		C18.02,16.04,18.51,16.51,18.51,17.11z"/>
	<rect x="20.01" y="16.5" class="st11" width="11.66" height="1.22"/>
	<path class="st11" d="M18.51,21.09c0,0.59-0.48,1.07-1.07,1.07c-0.59,0-1.07-0.48-1.07-1.07c0-0.59,0.48-1.07,1.07-1.07
		C18.02,20.01,18.51,20.49,18.51,21.09z"/>
	<rect x="20.01" y="20.47" class="st11" width="11.66" height="1.22"/>
	<path class="st11" d="M18.51,25.06c0,0.59-0.48,1.07-1.07,1.07c-0.59,0-1.07-0.48-1.07-1.07c0-0.59,0.48-1.07,1.07-1.07
		C18.02,23.99,18.51,24.48,18.51,25.06z"/>
	<rect x="20.01" y="24.45" class="st11" width="11.66" height="1.23"/>
	<polygon class="st11" points="37.72,34.45 23.84,34.45 17.26,30.85 23.84,27.11 37.72,27.11 	"/>
	<polygon class="st4" points="19.91,32.3 23.84,34.45 23.84,27.11 19.91,29.35 	"/>
	<polygon class="st14" points="23.7,34.22 20.05,32.22 20.05,29.43 23.7,27.35 23.7,34.22 	"/>
</g>
<g>
	<path class="st15" d="M28.1,33.16c-0.61,1.5-1.55,2.77-2.42,4.12c0.64,0.21,1.28,0.3,1.93,0.41c0.35,0.06,0.7,0.1,1.04,0.18
		c0.33,0.08,0.55-0.01,0.74-0.3c1.7-2.59,3.01-5.36,4.04-8.28c0.11-0.31,0.24-0.61,0.33-0.93c0.05-0.17,0.13-0.18,0.27-0.13
		c0.61,0.21,1.22,0.43,1.83,0.63c0.16,0.05,0.17,0.12,0.12,0.27c-1.28,3.76-2.91,7.34-5.25,10.57c-0.33,0.46-0.78,0.67-1.32,0.61
		c-6.23-0.66-11.7-2.98-16.17-7.47c-0.43-0.43-0.83-0.91-1.23-1.37c-0.35-0.4-0.5-0.85-0.27-1.38c0.23-0.52,0.66-0.68,1.18-0.69
		c2.67-0.06,5.2-0.69,7.59-1.87c1.61-0.8,2.93-1.92,3.9-3.45c0.24-0.38,0.25-0.38,0.65-0.15c0.46,0.26,0.92,0.54,1.39,0.78
		c0.22,0.11,0.21,0.19,0.09,0.39c-1.68,2.81-4.25,4.43-7.24,5.49c-1.28,0.45-2.61,0.75-3.95,0.97c-0.01,0.13,0.1,0.17,0.17,0.24
		c0.72,0.71,1.54,1.3,2.35,1.91c0.19,0.15,0.4,0.17,0.64,0.11c1.1-0.26,2.1-0.72,2.97-1.47c0.04,0.2-0.08,0.32-0.16,0.45
		c-0.41,0.68-0.92,1.3-1.45,1.89c-0.14,0.16-0.16,0.23,0.06,0.33c0.63,0.28,1.24,0.6,1.85,0.93c0.62,0.34,1.27,0.29,1.91,0.05
		c1.4-0.53,2.58-1.4,3.71-2.35c0.2-0.17,0.4-0.34,0.6-0.5C28.01,33.15,28.02,33.16,28.1,33.16z"/>
	<path class="st16" d="M37.06,25.43c0,0.45-0.08,0.88-0.22,1.3c-0.06,0.17-0.11,0.23-0.3,0.14c-3.58-1.6-7.17-3.2-10.76-4.78
		c-0.23-0.1-0.16-0.21-0.09-0.35c0.83-1.61,2.86-2.38,4.58-1.66c1.59,0.66,3.16,1.36,4.71,2.1C36.31,22.82,37,23.94,37.06,25.43z"/>
	<path class="st17" d="M38.46,11.13c-0.02,0.06-0.05,0.19-0.09,0.32c-1.05,2.89-2.1,5.78-3.13,8.68c-0.1,0.29-0.21,0.31-0.47,0.19
		c-0.99-0.46-2-0.91-3-1.34c-0.24-0.1-0.24-0.2-0.13-0.39c1.46-2.72,2.91-5.45,4.36-8.17c0.27-0.51,0.53-0.62,1.12-0.53
		c0.46,0.07,0.83,0.28,1.13,0.62C38.38,10.66,38.47,10.84,38.46,11.13z"/>
</g>
</svg>
